<?xml version="1.0" standalone="no"?>
<!DOCTYPE svg PUBLIC "-//W3C//DTD SVG 20010904//EN"
 "http://www.w3.org/TR/2001/REC-SVG-20010904/DTD/svg10.dtd">
<svg version="1.0" xmlns="http://www.w3.org/2000/svg"
 width="1085.000000pt" height="1085.000000pt" viewBox="0 0 1085.000000 1085.000000"
 preserveAspectRatio="xMidYMid meet">
<metadata>
Created by potrace 1.14, written by Peter Selinger 2001-2017
</metadata>
<g transform="translate(0.000000,1085.000000) scale(0.100000,-0.100000)"
fill="#000000" stroke="none">
<path d="M5218 10100 c-840 -62 -1601 -423 -2238 -1060 -717 -718 -1188 -1698
-1349 -2805 -42 -287 -54 -466 -54 -810 0 -420 26 -700 99 -1080 332 -1714
1454 -3074 2867 -3475 299 -85 556 -120 882 -120 334 0 593 36 900 125 557
162 1055 460 1504 900 308 302 540 600 751 965 863 1496 928 3480 166 5055
-577 1192 -1562 2018 -2676 2245 -268 54 -605 78 -852 60z m562 -105 c1027
-116 1975 -745 2614 -1734 637 -985 910 -2219 770 -3476 -125 -1123 -610
-2173 -1343 -2905 -597 -597 -1318 -952 -2090 -1030 -133 -13 -479 -13 -612 0
-296 30 -577 98 -854 207 -1366 538 -2361 1962 -2575 3683 -33 270 -43 476
-37 790 5 319 21 501 68 790 323 2001 1723 3521 3389 3679 233 22 447 21 670
-4z"/>
<path d="M5386 9088 c-41 -301 -38 -283 -48 -264 -5 9 -15 57 -23 107 -10 72
-20 100 -43 133 -42 59 -72 122 -81 169 l-8 42 -13 -30 c-25 -60 -23 -144 4
-234 18 -58 26 -107 26 -155 -1 -87 7 -96 -135 149 -60 102 -110 183 -112 181
-3 -2 21 -101 51 -220 31 -118 56 -220 56 -227 0 -22 -29 12 -61 72 -35 65
-56 88 -149 156 -36 27 -74 66 -87 88 l-23 40 0 -45 c0 -72 16 -110 76 -185
59 -75 117 -178 112 -201 -2 -9 -62 31 -168 112 -202 153 -228 172 -214 154 6
-8 75 -99 153 -202 78 -104 135 -188 128 -188 -8 0 -32 13 -53 30 -90 69 -117
83 -194 101 -83 19 -131 39 -162 67 -24 20 -23 10 7 -48 27 -54 59 -81 154
-131 67 -35 171 -122 160 -134 -4 -3 -105 19 -224 50 -119 31 -219 54 -221 52
-3 -2 86 -58 197 -123 217 -128 229 -143 77 -105 -78 20 -85 20 -161 5 -75
-15 -136 -15 -182 1 -32 11 56 -66 94 -82 18 -8 66 -17 105 -20 79 -6 154 -25
205 -52 33 -18 33 -18 10 -24 -13 -3 -117 -18 -231 -34 -115 -15 -208 -30
-208 -33 0 -3 93 -19 208 -35 114 -16 221 -32 237 -35 l30 -7 -40 -11 c-22 -6
-65 -14 -97 -17 -58 -6 -82 -17 -182 -78 -72 -45 -90 -46 -106 -7 -23 56 -39
59 -77 15 -64 -74 -93 -134 -93 -196 0 -31 7 -76 15 -99 22 -61 20 -125 -5
-150 -29 -29 -42 -25 -29 8 21 54 -17 193 -74 267 -20 26 -32 15 -98 -84 -51
-75 -51 -76 -47 -146 l3 -70 -30 39 c-16 22 -34 41 -40 43 -10 3 -67 -80 -99
-144 -18 -36 -21 -102 -6 -153 l10 -34 -31 37 c-17 20 -37 37 -45 37 -9 0 -30
-32 -52 -77 -48 -101 -51 -173 -9 -247 l28 -50 -61 58 c-33 31 -64 55 -70 51
-16 -10 -60 -163 -60 -210 0 -54 13 -85 60 -150 59 -80 56 -93 -7 -33 -52 49
-120 95 -127 86 -7 -8 -25 -99 -32 -154 -9 -83 6 -123 76 -200 74 -82 88 -122
21 -62 -43 39 -145 98 -169 98 -11 0 -22 -73 -22 -149 0 -82 37 -151 110 -208
32 -24 63 -56 69 -70 11 -25 11 -25 -28 6 -41 33 -126 74 -175 85 l-29 7 5
-104 c6 -112 17 -145 68 -196 36 -36 36 -36 -20 -16 -23 8 -54 15 -67 15 -24
0 -25 -2 -18 -52 14 -117 29 -171 52 -199 l25 -29 -46 6 c-46 7 -46 6 -46 -22
1 -56 29 -186 46 -211 9 -15 28 -37 41 -49 l24 -22 -42 9 c-76 17 -78 12 -37
-141 20 -78 37 -104 101 -151 l39 -28 -39 7 c-80 13 -88 11 -86 -28 3 -52 49
-179 75 -208 13 -13 37 -33 53 -44 l30 -19 -31 6 c-17 3 -43 3 -57 0 l-26 -7
34 -96 c23 -63 45 -107 67 -129 l32 -33 -26 0 c-15 0 -30 -5 -33 -10 -10 -16
70 -174 105 -208 17 -17 54 -40 83 -51 47 -18 49 -20 21 -20 -33 -1 -94 -19
-94 -29 0 -9 52 -95 86 -143 30 -42 80 -75 139 -94 16 -6 12 -10 -24 -23 -24
-10 -46 -23 -49 -30 -2 -6 34 -50 80 -96 98 -100 122 -109 260 -102 75 4 81 3
32 -3 -70 -9 -177 -46 -196 -68 -10 -12 1 -26 62 -83 40 -38 89 -77 108 -86
39 -18 137 -21 192 -4 43 12 70 13 70 1 0 -4 -15 -11 -34 -14 -42 -7 -140 -54
-161 -77 -15 -16 -12 -21 36 -63 85 -74 144 -102 214 -100 33 1 80 8 104 17
67 25 95 20 42 -7 -56 -28 -143 -106 -135 -119 4 -6 48 -30 99 -54 124 -59
170 -60 283 -4 51 25 94 40 118 40 l38 0 -47 -30 c-55 -35 -131 -110 -152
-150 -14 -27 -13 -28 13 -39 60 -24 198 -51 232 -45 48 9 97 35 155 83 27 23
55 41 62 41 14 0 284 -78 290 -84 5 -5 -152 -35 -223 -42 l-62 -7 -5 -41 c-3
-22 -4 -43 -1 -45 2 -2 57 10 123 27 65 18 122 32 125 32 14 0 -50 -48 -92
-69 -24 -12 -66 -25 -93 -28 -27 -3 -49 -8 -49 -10 0 -2 7 -17 15 -33 l15 -30
54 24 c64 28 161 93 195 130 28 30 38 31 66 11 18 -15 17 -18 -40 -76 -33 -33
-93 -83 -133 -110 -73 -48 -73 -49 -47 -59 40 -15 53 -13 100 20 56 39 110
102 132 156 15 36 22 44 43 42 14 -1 34 2 46 5 18 6 22 1 33 -32 15 -53 78
-131 137 -169 52 -35 60 -37 100 -22 27 11 27 11 -42 56 -72 47 -194 160 -194
180 0 6 8 18 18 27 17 16 20 15 53 -19 56 -60 212 -154 254 -154 10 0 35 40
35 55 0 3 -12 5 -27 5 -16 0 -44 5 -63 10 -37 10 -135 68 -128 75 2 3 53 -9
113 -25 60 -16 111 -28 113 -25 2 2 1 24 -2 48 l-7 43 -90 13 c-50 6 -113 16
-141 22 -47 11 -49 12 -29 26 12 8 75 30 141 49 134 38 133 38 204 -23 90 -76
161 -89 295 -53 96 26 105 32 96 59 -10 32 -113 134 -160 159 l-40 21 42 1
c30 0 63 -11 112 -37 119 -62 200 -54 349 33 l46 27 -53 49 c-29 27 -71 58
-92 69 -21 10 -39 21 -39 23 0 4 46 -6 100 -23 19 -6 62 -11 96 -11 54 0 68 5
120 38 67 43 134 100 134 113 0 13 -85 59 -158 85 -56 20 -60 23 -27 19 22 -3
75 -8 117 -11 97 -8 136 9 231 102 60 58 67 68 54 81 -24 24 -145 63 -200 64
-38 1 -45 3 -27 8 14 4 49 3 79 -1 34 -6 75 -5 110 2 52 11 62 18 139 96 45
46 82 89 82 95 0 5 -21 20 -47 31 l-48 21 47 14 c34 9 58 26 90 62 53 60 112
156 103 170 -3 6 -29 14 -58 17 l-52 7 45 19 c25 11 58 31 73 46 27 25 117
189 117 212 0 5 -11 10 -25 10 -29 0 -32 12 -9 31 34 28 101 196 90 224 -3 9
-19 15 -40 15 l-35 0 42 43 c42 42 75 120 93 221 l7 39 -56 -6 c-30 -4 -64
-10 -74 -13 -10 -3 -4 2 12 12 40 22 84 63 100 94 14 27 38 116 50 184 l6 39
-52 -7 -52 -7 35 39 c38 42 50 82 64 201 l7 64 -47 -5 c-43 -5 -46 -4 -32 11
23 25 43 80 50 136 4 28 9 67 12 88 6 36 5 37 -25 37 -18 0 -48 -7 -68 -15
-51 -21 -51 -19 -11 23 49 50 59 79 65 196 l6 98 -34 -7 c-45 -10 -138 -57
-178 -90 -65 -55 -28 0 53 78 91 88 106 118 106 208 0 71 -12 139 -24 139 -29
0 -121 -54 -166 -96 -46 -43 -50 -45 -40 -19 6 15 35 54 64 85 73 80 84 121
64 246 -9 53 -19 98 -22 102 -12 11 -78 -31 -132 -84 -55 -53 -61 -44 -12 19
51 65 71 123 65 186 -5 58 -45 191 -56 191 -13 0 -76 -50 -104 -83 l-27 -32
27 55 c42 82 39 142 -13 250 l-41 85 -42 -42 c-24 -24 -40 -35 -36 -25 4 9 10
42 12 73 4 44 1 65 -17 100 -36 70 -84 139 -96 139 -7 0 -25 -19 -41 -43 l-28
-44 3 67 c3 50 0 76 -13 101 -28 54 -106 150 -118 146 -20 -6 -76 -119 -88
-177 -8 -38 -9 -67 -2 -92 9 -35 9 -36 -13 -26 -37 17 -45 83 -18 162 11 31
15 69 12 110 -3 55 -9 70 -50 127 -25 36 -54 71 -63 79 -19 15 -27 9 -66 -50
-15 -23 -17 -23 -49 -10 -19 8 -60 31 -92 53 -45 30 -74 41 -126 49 -37 5 -85
15 -107 20 l-40 11 30 8 c17 4 123 20 238 35 114 15 207 30 207 33 0 3 -96 19
-213 35 -262 36 -267 37 -205 64 67 29 116 42 168 42 75 1 132 19 188 61 29
23 52 42 50 44 -2 1 -27 -2 -55 -8 -42 -9 -70 -8 -138 5 -82 16 -88 16 -165
-3 -151 -38 -140 -23 77 105 111 66 201 122 199 124 -2 2 -102 -22 -221 -53
-120 -31 -222 -54 -227 -53 -18 6 103 108 166 140 91 45 114 65 146 121 16 29
30 55 30 59 0 4 -21 -6 -48 -22 -27 -17 -79 -37 -121 -45 -74 -16 -144 -45
-157 -66 -8 -13 -94 -69 -106 -69 -6 0 140 201 276 379 18 24 -6 7 -202 -141
-135 -102 -182 -133 -177 -116 18 59 57 130 112 198 62 77 83 125 83 194 l0
40 -29 -45 c-15 -24 -46 -56 -67 -72 -21 -15 -57 -40 -79 -56 -26 -18 -53 -52
-79 -99 -41 -75 -85 -128 -73 -87 18 58 118 457 115 460 -2 2 -57 -89 -123
-203 l-120 -206 -3 77 c-2 61 3 94 23 158 29 94 31 137 8 204 l-16 49 -14 -55
c-7 -30 -28 -76 -45 -104 -55 -87 -67 -115 -73 -173 -3 -32 -11 -75 -17 -97
-10 -38 -11 -39 -19 -15 -4 14 -20 115 -34 225 -14 110 -29 208 -33 218 -5 11
-19 -64 -36 -185z m-136 -63 c10 -22 22 -67 26 -100 9 -75 27 -129 61 -178 19
-27 29 -34 33 -25 4 7 16 75 26 151 10 76 21 132 25 125 3 -7 14 -75 24 -151
17 -136 18 -138 37 -120 36 32 68 111 78 188 9 74 30 126 69 175 26 32 26 27
-5 -70 -19 -62 -25 -101 -25 -168 1 -78 12 -156 24 -168 2 -2 39 56 83 130 43
75 79 134 81 133 1 -2 -16 -70 -37 -152 -22 -83 -40 -151 -40 -153 0 -2 18 7
41 20 51 29 101 83 133 145 13 26 35 57 48 69 35 31 89 67 93 62 3 -2 -19 -33
-49 -69 -61 -74 -88 -123 -109 -199 -24 -87 -28 -110 -19 -110 5 0 62 41 126
90 65 50 121 90 123 90 6 0 -13 -26 -114 -158 -35 -45 -63 -87 -63 -93 0 -13
63 -2 118 22 24 10 61 34 84 53 49 43 89 62 148 71 54 8 47 0 -33 -44 -83 -44
-132 -87 -188 -161 -27 -36 -49 -68 -49 -71 0 -4 69 11 153 32 83 21 154 39
157 39 3 0 -58 -37 -134 -82 l-140 -82 30 -13 c43 -18 121 -16 209 7 69 18 86
19 144 8 52 -10 60 -14 41 -19 -14 -4 -46 -7 -72 -8 -68 -1 -194 -45 -261 -90
-33 -21 -55 -41 -50 -44 4 -3 70 -13 146 -23 75 -9 137 -20 137 -24 0 -3 -62
-14 -137 -25 -76 -10 -142 -20 -146 -22 -4 -3 9 -18 29 -34 41 -32 111 -56
195 -64 40 -4 73 -16 113 -42 32 -19 55 -37 53 -39 -2 -3 -42 7 -88 22 -75 23
-95 26 -194 22 -171 -6 -171 -11 -9 -106 77 -45 133 -82 127 -82 -7 0 -36 15
-65 34 -153 97 -388 190 -568 223 -141 25 -393 23 -526 -5 -190 -41 -332 -96
-502 -194 -57 -33 -105 -59 -107 -57 -2 2 58 40 132 84 l136 80 -39 12 c-21 6
-82 12 -134 12 -75 1 -111 -4 -174 -24 -43 -14 -81 -24 -83 -21 -2 2 21 20 52
39 37 23 75 38 108 42 95 11 146 27 187 56 22 16 40 33 40 37 0 5 -63 17 -140
27 -77 10 -140 21 -140 25 0 4 63 15 140 25 88 12 139 23 137 29 -5 16 -103
73 -167 97 -30 11 -93 25 -139 29 -46 5 -85 11 -87 13 -2 2 25 9 59 15 56 11
73 9 143 -9 55 -15 97 -20 140 -16 113 8 110 15 -39 103 -75 43 -135 80 -133
81 1 1 68 -15 149 -35 81 -21 147 -34 147 -29 0 17 -59 93 -112 143 -29 28
-84 68 -123 88 -93 50 -97 56 -28 42 68 -15 110 -35 157 -76 39 -35 104 -65
160 -75 51 -9 49 -5 -65 146 l-91 121 128 -97 c144 -108 151 -108 119 3 -23
79 -58 145 -108 206 -24 28 -49 60 -57 70 -15 20 -15 20 18 0 63 -36 98 -73
130 -132 30 -57 96 -127 141 -151 29 -16 28 -3 -14 156 -19 73 -35 136 -35
140 0 4 34 -51 76 -122 42 -72 79 -134 84 -138 13 -14 30 86 30 171 0 54 -8
101 -25 157 -14 44 -25 85 -25 90 1 15 37 -34 60 -80z m-565 -1193 c-20 -18
-302 -180 -346 -199 l-47 -21 10 35 c9 32 6 78 -8 126 -5 14 1 17 38 17 24 0
80 11 124 24 77 24 251 37 229 18z m1691 -17 c43 -14 100 -25 127 -25 41 0 48
-3 43 -17 -14 -48 -17 -94 -8 -126 l10 -36 -46 22 c-50 23 -330 184 -346 198
-23 21 142 9 220 -16z m-2119 -100 c3 -24 2 -65 -2 -90 -12 -81 -28 -36 -32
87 -3 108 -2 111 12 80 9 -18 18 -53 22 -77z m2361 -3 c-5 -113 -16 -158 -29
-112 -12 44 -9 115 6 168 9 29 18 52 22 52 3 0 4 -49 1 -108z m-2601 -198 c7
-66 -4 -131 -19 -116 -7 7 -13 60 -15 124 -3 110 -2 112 13 78 9 -19 18 -58
21 -86z m453 88 c0 -15 -64 -74 -101 -93 -25 -12 -48 -17 -68 -13 -56 11 -37
30 76 79 85 37 93 39 93 27z m2020 -41 c78 -37 90 -54 44 -59 -44 -6 -73 6
-120 50 -76 70 -55 73 76 9z m367 -67 c-5 -91 -17 -125 -28 -84 -11 40 -10
107 2 157 18 70 33 29 26 -73z m-2638 -105 c-43 -61 -138 -105 -176 -81 -24
15 11 40 127 88 72 30 75 30 49 -7z m2469 1 c42 -17 88 -39 102 -49 l24 -19
-28 -13 c-25 -12 -34 -10 -82 15 -44 23 -119 96 -99 96 3 0 40 -14 83 -30z
m-2848 -105 c7 -32 7 -65 2 -90 l-9 -40 -13 30 c-7 17 -14 71 -16 120 -4 84
-3 88 10 60 8 -16 20 -53 26 -80z m3190 -47 c-6 -38 -15 -70 -20 -73 -4 -3
-11 16 -15 42 -4 36 0 65 17 118 l23 70 3 -45 c2 -25 -1 -75 -8 -112z m-3120
-22 c0 -2 -7 -7 -16 -10 -8 -3 -12 -2 -9 4 6 10 25 14 25 6z m3045 -6 c3 -6
-1 -7 -9 -4 -18 7 -21 14 -7 14 6 0 13 -4 16 -10z m-2912 -38 c-33 -44 -102
-92 -133 -92 -34 0 -48 17 -29 36 20 20 171 96 177 89 3 -3 -3 -18 -15 -33z
m2810 7 c71 -36 117 -67 117 -79 0 -19 -47 -18 -87 1 -51 24 -126 109 -98 109
3 0 34 -14 68 -31z m338 -114 c-23 -129 -71 -203 -57 -89 6 52 53 170 64 160
2 -3 -1 -35 -7 -71z m-3515 11 c27 -60 44 -156 26 -156 -14 0 -38 64 -51 135
-18 96 -12 101 25 21z m114 -86 c-37 -25 -50 -31 -50 -20 0 6 10 15 23 20 30
12 45 12 27 0z m3294 -6 c9 -8 16 -18 16 -20 0 -7 -38 15 -45 26 -10 16 12 12
29 -6z m-3164 -3 c0 -15 -51 -85 -79 -108 -30 -26 -91 -31 -91 -8 0 8 35 39
78 69 78 56 92 63 92 47z m3053 -17 c112 -71 146 -114 87 -114 -34 0 -102 55
-126 101 -24 48 -20 49 39 13z m-3419 -174 c22 -42 45 -140 33 -140 -12 0 -47
71 -71 144 -14 43 -26 81 -26 85 1 12 41 -44 64 -89z m3776 28 c-21 -80 -72
-181 -78 -154 -7 32 18 110 54 164 19 28 36 52 38 52 2 0 -4 -28 -14 -62z
m-3553 -131 c-33 -56 -66 -85 -105 -93 -60 -12 -34 34 68 121 63 53 78 42 37
-28z m3361 -5 c68 -66 81 -99 35 -87 -58 14 -113 73 -129 139 -6 26 -5 27 13
18 11 -6 47 -38 81 -70z m-3493 38 c-10 -11 -21 -17 -24 -14 -3 3 3 12 13 20
28 20 32 17 11 -6z m3565 5 c7 -8 8 -15 2 -15 -5 0 -15 7 -22 15 -7 8 -8 15
-2 15 5 0 15 -7 22 -15z m-3740 -270 c10 -22 20 -53 24 -70 l6 -30 -30 35
c-28 32 -101 168 -100 187 1 17 84 -84 100 -122z m3978 73 c-24 -58 -80 -152
-98 -163 -14 -8 -5 33 20 91 15 34 84 124 96 124 1 0 -7 -24 -18 -52z m-3768
-101 c-22 -60 -76 -117 -110 -117 -11 0 -20 4 -20 9 0 27 141 192 148 173 1
-5 -7 -34 -18 -65z m3529 10 c83 -95 98 -140 38 -118 -32 12 -72 65 -92 120
-28 81 -18 80 54 -2z m111 -9 c0 -14 -19 1 -31 25 -12 22 -12 22 10 3 11 -11
21 -23 21 -28z m-3775 12 c-10 -11 -20 -18 -23 -15 -7 6 18 35 31 35 5 0 2 -9
-8 -20z m-185 -247 c33 -37 76 -120 67 -129 -8 -8 -96 98 -128 155 l-31 54 30
-21 c16 -12 44 -38 62 -59z m4177 22 c-35 -62 -112 -153 -121 -145 -13 14 45
109 94 153 28 26 54 47 56 47 1 0 -11 -25 -29 -55z m-3954 -114 c-20 -39 -36
-59 -55 -65 -55 -19 -49 10 25 121 l52 78 3 -39 c2 -27 -5 -55 -25 -95z m3736
9 c36 -67 38 -80 13 -80 -44 0 -102 94 -101 165 l0 40 29 -34 c16 -18 42 -59
59 -91z m-1889 -410 c0 -219 -3 -405 -6 -414 -3 -9 -12 -16 -20 -16 -12 0 -14
68 -14 419 0 414 0 419 20 414 20 -5 20 -14 20 -403z m-1881 123 c-18 -67 -89
-125 -89 -73 0 11 21 62 48 113 l47 92 3 -45 c2 -24 -2 -64 -9 -87z m3790 32
c42 -81 51 -125 28 -125 -40 0 -87 94 -87 172 0 63 6 59 59 -47z m246 35 c-44
-57 -124 -134 -132 -126 -7 6 24 61 54 96 22 27 107 90 120 90 1 0 -18 -27
-42 -60z m-4276 -6 c33 -28 87 -111 78 -120 -8 -9 -98 78 -136 131 l-34 47 31
-16 c16 -8 44 -27 61 -42z m206 -362 c-16 -41 -59 -82 -72 -68 -10 10 13 89
49 164 l33 67 3 -60 c2 -38 -3 -75 -13 -103z m3855 46 c32 -82 36 -108 19
-108 -51 0 -84 79 -80 190 2 33 2 34 16 16 8 -11 29 -55 45 -98z m-4096 35
c43 -31 104 -108 94 -119 -9 -8 -88 58 -136 114 -50 58 -36 60 42 5z m4332 -6
c-46 -54 -136 -126 -136 -108 0 33 136 161 172 161 5 0 -11 -24 -36 -53z
m-2286 -242 l0 -105 -172 0 -173 0 -75 -34 c-41 -18 -120 -54 -176 -80 -55
-25 -124 -50 -153 -56 -146 -28 -580 -73 -823 -86 l-127 -7 -5 24 c-10 43 -26
262 -26 357 l0 92 865 0 865 0 0 -105z m1926 -47 c-6 -144 -33 -408 -42 -417
-11 -12 -438 85 -599 136 -162 51 -208 61 -340 73 -142 14 -199 34 -356 123
-130 73 -147 80 -209 82 -25 0 -78 2 -117 3 l-73 2 0 75 0 75 871 0 872 0 -7
-152z m124 25 c39 -94 49 -143 28 -143 -20 0 -53 39 -67 79 -13 40 -15 141 -2
141 4 0 23 -35 41 -77z m-3850 19 c0 -73 -26 -139 -62 -158 l-31 -16 6 40 c6
45 65 182 78 182 5 0 9 -22 9 -48z m4103 -18 c-48 -57 -132 -128 -141 -120 -7
7 33 68 65 98 23 22 109 77 121 78 2 0 -18 -25 -45 -56z m-4337 -17 c16 -14
40 -44 53 -67 l23 -42 -22 12 c-31 17 -95 76 -132 122 l-31 40 40 -20 c22 -12
53 -32 69 -45z m2377 -61 c76 -11 107 -21 145 -44 26 -17 100 -56 164 -88 113
-54 122 -57 245 -70 162 -18 217 -29 323 -65 83 -29 397 -111 555 -144 44 -10
83 -21 88 -24 8 -8 -11 -110 -44 -234 l-21 -77 -37 6 c-315 53 -596 139 -858
264 -75 36 -126 66 -133 80 l-12 22 -14 -21 c-9 -12 -24 -21 -36 -21 -33 0
-133 59 -196 115 -57 52 -122 153 -122 191 0 15 -6 12 -30 -14 -17 -19 -38
-32 -47 -30 -9 2 -32 22 -49 45 l-32 42 -26 -43 c-31 -54 -121 -136 -150 -137
-34 -3 -111 3 -116 8 -2 2 36 43 86 91 49 48 104 104 121 125 36 43 45 44 196
23z m-363 -78 c18 -12 15 -16 -44 -78 -86 -90 -93 -104 -62 -133 50 -46 136
-90 186 -95 62 -6 140 13 187 45 33 22 40 24 59 12 35 -21 174 -125 219 -163
34 -29 38 -36 26 -50 -29 -35 -95 -14 -213 66 -32 21 -58 35 -58 31 0 -4 41
-47 92 -94 90 -85 91 -88 76 -111 -27 -41 -66 -35 -157 25 -44 30 -81 51 -81
45 0 -5 27 -38 60 -72 33 -35 60 -66 60 -69 0 -11 -58 -37 -82 -37 -12 0 -61
24 -108 54 -47 29 -96 57 -110 61 -14 4 -83 34 -153 67 -127 59 -288 108 -354
108 -19 0 -116 -15 -216 -34 -278 -53 -926 -160 -931 -155 -6 5 -67 302 -63
305 1 1 106 12 232 24 246 22 556 60 696 85 56 9 150 40 265 85 99 39 204 75
234 79 86 13 218 13 240 -1z m-1765 -78 c12 -68 -12 -149 -51 -175 -22 -14
-25 -14 -31 0 -9 24 51 215 67 215 5 0 11 -18 15 -40z m3819 -30 c35 -97 44
-150 23 -150 -26 0 -55 39 -67 91 -12 48 -6 129 10 129 4 0 19 -32 34 -70z
m266 -15 c-50 -51 -147 -121 -155 -113 -15 15 65 94 125 125 36 18 67 33 70
33 2 0 -16 -20 -40 -45z m-4372 11 c42 -22 92 -67 132 -120 14 -17 11 -17 -27
3 -41 20 -176 140 -160 141 4 0 29 -11 55 -24z m330 -289 c5 -71 -14 -129 -46
-146 -33 -18 -35 15 -7 125 14 54 25 101 25 103 0 3 5 0 12 -7 7 -7 14 -40 16
-75z m3730 6 c31 -117 34 -140 23 -148 -18 -10 -48 13 -60 46 -18 53 -12 179
9 179 4 0 17 -35 28 -77z m-3986 -34 c27 -13 108 -89 108 -101 0 -19 -107 46
-175 107 l-40 35 42 -14 c23 -8 52 -20 65 -27z m4254 1 c-41 -38 -151 -110
-168 -110 -17 0 44 70 80 92 35 22 109 56 124 57 4 1 -12 -17 -36 -39z m-2528
-86 c29 -8 29 -48 0 -68 -41 -29 -128 -15 -128 20 0 8 19 24 43 34 46 22 52
22 85 14z m1202 -138 c102 -52 355 -168 581 -266 90 -40 165 -73 167 -74 4 -5
-58 -134 -112 -231 -54 -99 -184 -295 -195 -295 -4 0 -16 19 -28 43 -72 147
-259 320 -414 383 -58 24 -139 32 -139 15 0 -5 35 -36 77 -70 43 -34 97 -85
121 -114 48 -58 105 -169 122 -237 15 -62 38 -280 29 -285 -3 -3 -17 23 -29
58 -67 186 -183 342 -299 401 -57 30 -56 6 3 -87 73 -116 97 -188 103 -311 9
-152 -21 -276 -66 -276 -4 0 -11 33 -14 73 -7 98 -31 188 -74 275 -47 95 -126
165 -108 95 54 -211 47 -357 -25 -510 l-28 -62 -84 -25 c-46 -14 -88 -26 -92
-26 -4 0 6 17 24 37 45 51 61 94 70 192 7 73 15 100 53 176 25 50 49 101 52
114 7 23 6 23 -31 16 -64 -11 -132 -46 -164 -82 -17 -18 -30 -39 -30 -46 0 -7
-9 6 -19 29 -10 22 -42 60 -70 84 -48 41 -51 46 -51 92 l0 48 125 0 125 0 0
160 0 160 -125 0 -125 0 0 125 0 125 -160 0 -160 0 0 -125 0 -125 -125 0 -125
0 0 -160 0 -160 74 0 74 0 -34 -67 c-44 -87 -58 -159 -44 -232 5 -30 10 -56
10 -57 0 -2 -15 3 -32 11 -28 11 -37 24 -58 84 l-26 71 -22 -22 c-76 -81 -72
-245 8 -372 43 -67 8 -58 -39 11 -115 169 -138 350 -76 596 11 41 -17 35 -59
-14 -69 -81 -126 -265 -126 -409 0 -38 -4 -70 -9 -70 -17 0 -29 27 -51 115
-19 75 -22 107 -17 200 6 133 26 198 104 326 30 50 52 93 49 96 -22 22 -132
-57 -201 -145 -55 -69 -126 -206 -151 -287 -23 -77 -38 -95 -30 -35 3 25 10
88 16 140 24 232 98 369 272 501 67 51 78 63 64 71 -28 16 -93 -1 -187 -49
-138 -69 -290 -222 -370 -373 -13 -25 -24 -47 -26 -49 -1 -1 -6 0 -12 3 -6 4
6 32 30 69 22 34 63 109 90 166 112 233 223 337 431 403 56 17 97 36 95 42 -2
6 -23 17 -48 25 -96 31 -316 -23 -472 -116 -79 -46 -248 -200 -294 -266 l-19
-29 -52 110 c-80 170 -91 146 105 229 216 92 376 151 536 198 l129 37 26 -25
c36 -32 65 -47 96 -47 20 0 26 -5 26 -21 0 -49 38 -88 88 -89 23 0 40 -9 60
-31 23 -25 38 -33 79 -36 28 -3 59 -1 69 5 15 9 23 5 44 -19 40 -48 93 -50
178 -8 37 18 72 32 77 30 122 -37 186 -36 228 3 14 13 42 26 63 29 26 4 49 17
69 39 17 19 37 32 47 30 32 -6 86 18 112 48 16 20 40 33 73 40 52 12 103 52
103 82 0 18 4 17 43 -7 23 -14 80 -45 127 -69z m-1021 63 c38 -13 40 -37 5
-70 -44 -42 -149 -21 -131 26 5 11 69 50 93 55 1 0 15 -5 33 -11z m-1589 -59
c14 -59 6 -113 -22 -152 -28 -40 -38 -35 -38 23 0 60 28 191 40 184 4 -3 13
-28 20 -55z m3617 -102 c7 -88 -2 -97 -39 -45 -18 25 -23 44 -22 92 0 33 7 74
14 90 l13 30 14 -45 c8 -25 17 -80 20 -122z m-3862 27 c51 -25 130 -95 106
-95 -21 0 -143 68 -181 102 l-35 30 30 -6 c17 -4 53 -18 80 -31z m4104 -6
c-55 -42 -156 -95 -165 -86 -11 11 98 95 143 110 76 25 81 20 22 -24z m-3789
-149 c5 -19 10 -53 10 -75 0 -48 -35 -114 -52 -97 -12 12 -13 117 -2 196 6 46
8 48 20 31 8 -11 19 -35 24 -55z m3469 -77 c1 -76 -2 -93 -14 -93 -8 0 -22 14
-31 32 -20 39 -14 129 12 179 l18 34 7 -30 c4 -16 7 -72 8 -122z m265 -15
c-56 -36 -155 -78 -181 -78 -14 1 -11 6 12 26 45 38 84 57 145 70 79 18 79 17
24 -18z m-3988 7 c53 -16 143 -84 112 -85 -20 0 -104 36 -168 74 -40 23 -42
26 -19 26 14 0 48 -7 75 -15z m2064 -45 c0 -6 -37 -10 -90 -10 l-90 0 0 -124
c0 -69 -3 -126 -7 -128 -5 -2 -69 -1 -143 2 l-135 6 133 2 132 2 0 130 0 130
100 0 c60 0 100 -4 100 -10z m-1680 -177 c10 -44 9 -58 -6 -88 -34 -71 -54
-27 -54 118 l1 102 24 -40 c14 -22 29 -63 35 -92z m3218 -10 c-4 -104 -14
-125 -44 -92 -28 31 -23 105 12 177 25 49 29 54 32 32 2 -14 2 -67 0 -117z
m-3351 -45 c-3 -7 -5 -2 -5 12 0 14 2 19 5 13 2 -7 2 -19 0 -25z m3430 0 c-3
-7 -5 -2 -5 12 0 14 2 19 5 13 2 -7 2 -19 0 -25z m223 8 c0 -16 -198 -87 -240
-86 -19 1 8 23 65 52 42 22 175 48 175 34z m-3751 -16 c43 -12 120 -62 104
-67 -18 -6 -133 27 -182 52 l-46 24 45 1 c25 0 60 -4 79 -10z m2114 -17 c-35
-2 -91 -2 -125 0 -35 2 -7 3 62 3 69 0 97 -1 63 -3z m-1757 -105 c28 -56 32
-129 8 -149 -13 -10 -17 -10 -24 2 -10 15 -34 114 -45 189 l-7 45 22 -20 c12
-11 33 -41 46 -67z m2955 -33 c-22 -110 -37 -137 -58 -109 -17 23 -17 86 0
127 17 40 70 103 74 90 2 -6 -5 -54 -16 -108z m-1581 -283 c0 -137 -4 -202
-10 -192 -13 21 -13 413 0 405 6 -4 10 -86 10 -213z m-1505 164 l50 -24 -60
-1 c-64 -1 -208 32 -184 42 8 3 43 6 79 6 49 1 77 -5 115 -23z m3365 15 c0
-14 -143 -42 -200 -39 l-55 3 55 22 c56 22 200 33 200 14z m-1941 -113 c-1
-99 -1 -102 -15 -69 -15 34 -34 119 -34 152 0 14 7 19 25 19 l25 0 -1 -102z
m1502 -3 c-26 -94 -47 -145 -60 -145 -5 0 -14 14 -20 32 -9 25 -8 42 4 79 16
48 86 140 93 121 2 -6 -6 -45 -17 -87z m-2647 38 c42 -57 58 -109 48 -148 -18
-65 -45 -33 -81 96 -11 41 -21 81 -21 87 0 24 21 11 54 -35z m-88 -190 l49
-17 -40 -9 c-26 -5 -70 -4 -125 3 -98 14 -117 22 -75 31 57 13 142 9 191 -8z
m2534 -55 c-33 -93 -69 -160 -83 -155 -7 2 -13 23 -15 46 -3 33 3 53 23 85 27
40 86 98 94 90 2 -2 -6 -32 -19 -66z m450 63 c24 -7 24 -7 5 -15 -26 -10 -252
-21 -243 -11 27 28 172 44 238 26z m-2698 -38 c20 -21 43 -52 52 -70 19 -37
21 -99 4 -109 -15 -10 -35 21 -75 115 -48 112 -43 128 19 64z m1405 -201 c-9
-44 -27 -102 -41 -130 -23 -46 -29 -51 -78 -63 -109 -28 -413 -11 -506 27 -36
15 -71 77 -72 128 l0 29 22 -28 c34 -43 98 -85 131 -85 29 0 29 0 23 48 -4 26
-9 59 -12 75 -9 44 10 31 28 -20 18 -50 67 -116 97 -133 39 -20 130 104 131
180 1 34 2 34 11 10 6 -14 14 -53 17 -88 7 -62 7 -62 29 -47 13 9 41 47 64 86
24 40 46 66 51 61 4 -4 12 -28 16 -53 l8 -44 18 35 c24 46 67 103 73 97 2 -3
-2 -41 -10 -85z m-1185 28 c60 -40 98 -95 98 -143 0 -20 -4 -37 -8 -37 -19 0
-98 103 -136 178 -20 40 -12 40 46 2z m1827 8 c-44 -83 -116 -178 -135 -178
-24 0 -17 61 12 103 23 35 105 97 126 97 5 0 3 -10 -3 -22z m-2094 -43 c22 -7
36 -13 30 -14 -5 -1 -37 -6 -70 -11 -56 -9 -201 -3 -190 8 11 11 103 31 145
31 25 0 63 -6 85 -14z m2505 -5 l55 -18 -120 0 c-66 0 -129 3 -140 8 -21 8
-21 8 25 23 33 12 128 5 180 -13z m-409 -123 c-17 -17 -24 -1 -9 22 11 18 14
19 16 5 2 -9 -1 -21 -7 -27z m-1868 9 c15 -23 15 -24 -3 -19 -11 3 -20 14 -20
24 0 25 4 24 23 -5z m322 -14 c50 -25 86 -56 101 -84 19 -37 18 -68 -2 -68
-19 0 -174 153 -174 170 0 13 28 6 75 -18z m1285 22 c0 -4 -25 -35 -55 -70
-54 -61 -120 -112 -132 -101 -3 4 -2 22 1 41 8 42 69 98 130 120 48 17 56 18
56 10z m378 -104 c34 -16 62 -31 62 -34 0 -11 -171 21 -224 42 -34 13 -37 17
-20 24 32 13 116 -1 182 -32z m-1928 20 c-43 -29 -268 -74 -243 -49 27 27 130
59 193 59 46 0 61 -3 50 -10z m597 -70 c110 -21 136 -30 89 -30 -71 0 -138
-58 -116 -100 19 -36 5 -33 -30 7 -27 31 -80 129 -80 149 0 4 7 4 15 0 8 -3
63 -14 122 -26z m683 25 c0 -14 -65 -133 -83 -152 -27 -30 -41 -29 -33 2 4 14
2 34 -3 44 -11 20 -79 51 -113 51 -42 0 -8 12 74 26 46 8 94 19 108 23 29 11
50 13 50 6z m243 -35 c-9 -16 -24 -30 -32 -30 -10 0 -5 10 14 30 16 17 30 30
32 30 2 0 -4 -13 -14 -30z m-1274 -29 c-7 -2 -18 4 -26 15 -22 30 -15 39 13
13 16 -15 21 -25 13 -28z m660 -11 c73 -21 105 -92 65 -148 -13 -18 -19 -20
-36 -11 -13 7 -52 10 -99 7 -74 -4 -78 -4 -88 19 -25 56 -1 107 60 129 43 16
56 16 98 4z m-204 -30 c-21 -40 -19 -59 10 -114 13 -25 22 -46 19 -46 -4 0
-28 16 -54 35 -49 36 -77 83 -66 110 6 17 60 44 89 45 16 0 16 -2 2 -30z m383
4 c24 -16 28 -44 12 -74 -11 -20 -97 -90 -111 -90 -4 0 4 20 18 45 25 46 27
84 8 129 -7 17 -5 18 21 12 16 -4 39 -14 52 -22z m478 -38 c27 -14 65 -39 84
-55 l34 -29 -73 24 c-75 24 -191 81 -191 94 0 14 98 -9 146 -34z m-1246 30 c0
-10 -99 -60 -162 -82 -86 -29 -86 -29 -63 -4 24 27 78 60 124 76 34 12 101 19
101 10z m591 -156 c41 -23 3 -100 -50 -100 -53 0 -94 76 -53 99 22 14 78 14
103 1z"/>
<path d="M5039 8321 c-50 -36 -86 -77 -76 -87 2 -3 31 10 63 27 57 30 62 31
159 26 55 -3 110 -9 123 -12 19 -7 22 -4 22 23 0 61 -2 62 -124 62 l-113 0
-54 -39z"/>
<path d="M5498 8318 c-3 -24 -4 -45 -2 -46 1 -2 26 1 54 7 28 6 82 11 119 11
56 0 79 -5 130 -31 34 -17 65 -28 68 -25 10 9 -46 65 -96 97 -43 28 -51 29
-157 29 l-112 0 -4 -42z"/>
<path d="M5117 8223 c-31 -5 -136 -96 -120 -106 5 -3 26 5 46 18 20 14 40 25
44 25 4 0 15 -15 23 -33 21 -45 61 -57 98 -30 15 11 29 33 32 48 l5 28 33 -28
c23 -19 36 -25 44 -17 13 13 -3 42 -43 76 -31 26 -77 32 -162 19z"/>
<path d="M5583 8224 c-26 -6 -96 -81 -88 -94 10 -16 31 -12 50 10 22 24 35 26
35 5 0 -24 46 -65 73 -65 27 0 67 38 67 63 0 24 18 21 62 -9 44 -31 58 -26 34
11 -29 44 -85 73 -151 79 -33 2 -70 2 -82 0z"/>
<path d="M2203 5505 c-161 -45 -238 -137 -235 -280 1 -38 7 -90 15 -115 11
-39 16 -45 40 -44 15 0 106 1 202 2 l176 2 -3 102 c-3 114 -5 116 -74 103 -32
-6 -34 -8 -34 -45 l0 -40 -104 0 c-113 0 -118 3 -109 56 9 48 43 85 102 113
51 23 68 26 181 26 117 0 129 -2 182 -28 74 -36 101 -78 101 -156 0 -31 -2
-63 -4 -70 -6 -20 87 -39 104 -22 7 8 12 46 12 99 0 75 -4 94 -27 138 -34 64
-95 117 -167 145 -73 29 -278 37 -358 14z"/>
<path d="M8770 5406 l0 -105 -137 4 c-76 3 -227 7 -335 9 l-196 5 -4 -64 -3
-63 180 -6 c99 -3 275 -7 390 -8 l210 -3 3 168 2 167 -55 0 -55 0 0 -104z"/>
<path d="M8410 4879 c-162 -9 -307 -18 -321 -18 -25 -1 -27 -5 -37 -73 -6 -40
-10 -73 -9 -74 9 -7 740 -284 743 -281 2 1 7 28 12 59 l9 57 -97 36 -97 36 11
72 11 72 103 9 c113 9 103 2 117 89 l6 37 -78 -1 c-43 -1 -211 -10 -373 -20z
m114 -166 c-3 -32 -7 -59 -8 -60 -1 -1 -71 22 -156 52 l-155 53 70 4 c39 2
112 5 163 6 l93 2 -7 -57z"/>
<path d="M2405 4870 c-182 -29 -330 -111 -364 -203 -35 -91 10 -201 100 -247
156 -80 524 -15 633 111 98 114 47 270 -105 324 -55 20 -185 27 -264 15z m230
-131 c52 -14 75 -36 75 -71 0 -36 -28 -64 -94 -93 -119 -54 -367 -78 -433 -42
-85 46 -32 133 106 174 134 39 273 52 346 32z"/>
<path d="M7955 4325 c-9 -32 -13 -61 -8 -65 8 -8 720 -200 739 -200 11 0 40
108 31 117 -4 4 -562 157 -724 199 -19 5 -23 -1 -38 -51z"/>
<path d="M2516 4171 c-193 -64 -352 -123 -354 -129 -5 -17 35 -147 63 -202 27
-53 78 -104 118 -119 70 -27 183 -6 236 42 28 26 60 93 61 126 l0 24 23 -21
c61 -57 182 -55 251 6 28 26 56 92 56 138 0 71 -68 255 -94 253 -6 0 -168 -53
-360 -118z m344 -65 c15 -45 4 -81 -32 -111 -38 -32 -113 -35 -150 -5 -23 18
-56 76 -47 84 8 7 185 64 201 65 10 1 21 -12 28 -33z m-316 -82 c12 -30 6 -96
-11 -125 -33 -56 -134 -80 -187 -45 -29 19 -59 70 -54 93 2 11 41 29 113 54
128 44 131 44 139 23z"/>
<path d="M7881 4063 c-12 -14 -29 -51 -37 -81 -51 -174 76 -340 321 -419 92
-29 208 -36 269 -14 84 29 163 137 169 228 2 38 4 37 -74 56 -24 6 -27 4 -33
-31 -8 -54 -38 -96 -81 -117 -101 -47 -342 31 -430 140 -25 31 -30 45 -30 93
0 42 6 65 22 87 l21 31 -42 27 c-24 15 -46 27 -49 27 -3 0 -15 -12 -26 -27z"/>
<path d="M2745 3557 c-187 -88 -341 -162 -343 -163 -3 -2 45 -103 53 -112 3
-3 686 317 697 327 10 10 -39 111 -54 110 -7 0 -166 -73 -353 -162z"/>
<path d="M7647 3525 c-15 -25 -27 -47 -27 -49 0 -6 258 -157 375 -219 64 -33
97 -56 80 -53 -16 3 -68 12 -115 20 -214 37 -431 68 -444 63 -20 -8 -60 -87
-49 -98 9 -9 652 -389 658 -389 5 0 55 85 55 92 0 6 -186 117 -365 218 -60 34
-101 59 -90 56 64 -16 413 -73 548 -89 12 -1 27 14 47 48 l29 50 -331 195
c-182 107 -334 196 -337 198 -3 1 -18 -18 -34 -43z"/>
<path d="M2935 3214 c-170 -108 -315 -201 -321 -207 -9 -9 8 -43 67 -137 44
-69 84 -132 88 -140 10 -16 31 -8 80 29 l24 19 -51 81 c-29 45 -52 86 -52 90
0 5 35 30 78 57 42 26 87 54 98 61 20 13 24 10 68 -62 26 -41 50 -75 52 -75
14 0 84 46 84 55 0 6 -20 41 -45 80 -24 38 -41 73 -36 78 4 4 43 30 87 57 l78
48 49 -76 c27 -42 51 -79 53 -81 5 -5 40 13 73 38 l23 18 -83 131 c-45 73 -87
132 -93 132 -6 0 -150 -89 -321 -196z"/>
<path d="M7285 2979 c-32 -43 -36 -52 -24 -63 8 -8 144 -118 303 -246 l289
-233 29 34 c16 19 33 42 38 51 11 18 1 26 -435 377 -71 57 -137 110 -146 117
-13 12 -20 7 -54 -37z"/>
<path d="M3246 2734 l-286 -256 36 -44 c20 -24 41 -44 46 -44 6 0 51 37 102
82 148 133 133 123 152 107 46 -38 36 -89 -38 -179 -52 -64 -98 -131 -98 -143
0 -4 19 -28 41 -52 l41 -45 50 72 c28 40 61 86 74 102 38 44 64 101 64 139 l0
33 63 -4 c50 -3 72 0 104 16 50 26 107 89 123 137 30 90 -29 209 -150 305
l-38 30 -286 -256z m332 73 c12 -13 25 -37 28 -55 14 -70 -92 -163 -166 -147
-30 7 -80 40 -80 54 0 9 179 171 190 171 3 0 16 -10 28 -23z"/>
<path d="M7103 2764 l-52 -45 131 -207 c72 -114 143 -225 158 -247 45 -68 45
-71 -1 -34 -24 20 -133 104 -243 187 -153 117 -202 149 -215 143 -9 -5 -33
-27 -53 -48 l-36 -38 315 -220 c174 -121 321 -223 328 -227 7 -4 33 12 63 40
l52 47 -195 345 c-108 189 -197 345 -198 346 -1 2 -26 -18 -54 -42z"/>
<path d="M3918 2562 c-8 -9 -95 -127 -193 -262 -98 -135 -196 -268 -217 -297
l-38 -52 46 -32 47 -32 18 24 c11 13 81 110 156 216 76 105 139 190 140 189 2
-2 -6 -28 -16 -60 -11 -31 -43 -147 -71 -259 -28 -111 -53 -210 -56 -219 -3
-11 10 -26 42 -49 l47 -32 18 22 c10 12 114 153 230 313 l213 291 -40 33 c-21
19 -42 34 -46 34 -8 0 -132 -170 -242 -330 -43 -63 -76 -106 -73 -95 3 11 35
133 71 271 36 137 66 258 66 267 0 14 -38 49 -76 70 -6 4 -18 -1 -26 -11z"/>
<path d="M6525 2321 c-84 -38 -120 -111 -113 -225 7 -89 35 -169 96 -269 94
-156 211 -244 312 -235 132 13 205 138 170 289 -17 74 -81 208 -134 283 -109
153 -223 207 -331 157z m158 -154 c92 -95 196 -297 197 -382 0 -45 -25 -75
-63 -75 -48 0 -97 39 -155 124 -147 211 -176 386 -65 386 29 0 44 -9 86 -53z"/>
<path d="M4464 2150 c-69 -39 -116 -96 -170 -205 -72 -147 -100 -293 -73 -388
16 -58 72 -114 132 -132 153 -45 285 79 378 357 49 144 41 274 -19 342 -27 30
-93 56 -147 56 -37 0 -63 -8 -101 -30z m156 -107 c19 -24 21 -36 17 -89 -7
-68 -62 -232 -102 -300 -48 -81 -93 -124 -131 -124 -72 0 -85 98 -34 253 78
231 185 342 250 260z"/>
<path d="M5910 2066 c-77 -27 -112 -44 -106 -54 2 -4 47 -167 101 -362 53
-195 100 -358 104 -362 5 -5 106 17 118 26 1 1 -16 64 -37 141 -47 166 -47
174 -17 177 71 5 84 -8 146 -136 71 -147 65 -142 139 -121 l62 18 -26 41 c-14
22 -41 74 -60 114 -45 96 -78 139 -120 154 -34 12 -34 12 -14 33 50 54 65 166
31 240 -22 47 -64 89 -104 104 -47 18 -146 12 -217 -13z m177 -108 c60 -56 53
-185 -11 -217 -54 -27 -57 -24 -93 104 -18 65 -30 122 -25 126 26 25 97 18
129 -13z"/>
<path d="M5293 2003 l-33 -4 0 -193 c0 -106 3 -281 7 -389 l6 -197 48 0 c84 0
80 -7 73 161 l-7 149 44 0 c91 0 195 75 220 158 6 22 10 73 8 114 -8 144 -86
209 -249 206 -47 -1 -100 -3 -117 -5z m176 -104 c78 -27 92 -188 21 -241 -14
-10 -42 -21 -63 -25 l-37 -6 0 99 c0 55 -3 115 -6 136 -5 30 -3 37 12 41 31 8
40 7 73 -4z"/>
</g>
</svg>
